<svg width="287" height="287" viewBox="0 0 287 287" fill="none" xmlns="http://www.w3.org/2000/svg">
<path opacity="0.46" d="M214.835 214.835C254.385 175.285 254.385 111.162 214.835 71.6115C175.285 32.0616 111.162 32.0616 71.6115 71.6115C32.0616 111.162 32.0616 175.285 71.6115 214.835C111.162 254.385 175.285 254.385 214.835 214.835Z" fill="#FCB158"/>
<path d="M143.226 255.338C81.4051 255.338 31.1101 205.043 31.1101 143.223C31.1101 81.4029 81.4051 31.1069 143.226 31.1069C205.047 31.1069 255.341 81.4019 255.341 143.223C255.341 205.043 205.046 255.338 143.226 255.338ZM143.226 33.1389C82.5261 33.1389 33.1431 82.5219 33.1431 143.223C33.1431 203.923 82.5261 253.306 143.226 253.306C203.926 253.306 253.309 203.923 253.309 143.223C253.309 82.5229 203.926 33.1389 143.226 33.1389Z" fill="black"/>
<path d="M193.375 187.321L135.597 192.447C135.551 187.783 135.227 171.632 132.921 164.283C130.288 155.889 106.418 158.944 100.352 159.865C96.9531 142.769 91.1801 131.938 90.9321 131.476C90.6291 130.916 89.9301 130.707 89.3731 131.009C88.8131 131.31 88.6041 132.009 88.9051 132.568C88.9661 132.681 95.0091 144.036 98.3031 161.39C98.4201 162.004 99.0081 162.412 99.6221 162.311C110.748 160.469 129.028 159.563 130.724 164.973C133.272 173.094 133.302 193.499 133.302 193.704C133.302 194.027 133.437 194.335 133.676 194.553C133.889 194.748 134.167 194.855 134.453 194.855C134.487 194.855 134.52 194.854 134.555 194.85L193.579 189.614C194.212 189.558 194.68 188.999 194.623 188.366C194.567 187.732 193.999 187.266 193.375 187.321Z" fill="#17120F"/>
<path d="M204.501 159.01C203.641 157.542 202.238 156.631 200.332 156.301C194.322 155.259 158.55 159.164 151.804 159.915C151.372 157.647 150.53 151.842 152.001 146.694C153.532 141.336 156.717 130.188 147.618 127.358C143.355 126.031 138.602 126.646 133.099 127.358C128.637 127.935 123.579 128.591 117.907 128.294C114.958 128.141 112.495 128.032 110.266 127.934C103.002 127.614 98.1961 127.402 87.0531 126.093C84.8001 125.411 82.3621 125.887 80.5221 127.374C78.6441 128.89 77.6561 131.228 77.8811 133.629L85.0531 210.441C85.0981 210.927 85.4451 211.331 85.9181 211.45L86.1991 211.521V213.523C86.1991 213.944 86.4841 214.313 86.8921 214.419L92.6021 215.909C93.1891 216.062 93.7621 215.619 93.7621 215.013V213.424L118.61 219.673V221.739C118.61 222.16 118.884 222.531 119.286 222.656L127.158 225.09C127.306 225.136 127.464 225.145 127.617 225.117L133.567 224.011C134.021 223.926 134.351 223.53 134.351 223.068V221.083L194.833 214.407V215.487C194.833 215.961 195.247 216.329 195.718 216.275L200.832 215.679C201.232 215.633 201.533 215.294 201.533 214.892V213.614C201.965 213.446 202.273 213.04 202.273 212.556V171.902L204.607 167.468C204.633 167.419 204.656 167.367 204.674 167.314C204.746 167.109 206.415 162.277 204.501 159.01ZM202.528 166.473L200.103 171.079C200.016 171.245 199.97 171.429 199.97 171.615V211.523L128.518 219.409L127.217 172.322C127.199 171.687 126.669 171.173 126.034 171.205C125.399 171.223 124.898 171.753 124.917 172.388L126.207 219.21L87.2681 209.417L80.1721 133.416C80.0201 131.785 80.6911 130.196 81.9671 129.166C83.2491 128.132 84.8791 127.822 86.4661 128.322C86.5361 128.345 86.6081 128.36 86.6811 128.369C97.9821 129.699 102.829 129.912 110.165 130.236C112.389 130.334 114.847 130.442 117.788 130.595C123.671 130.899 128.835 130.232 133.395 129.643C138.63 128.967 143.152 128.381 146.935 129.558C153.043 131.459 151.916 138.614 149.788 146.064C147.754 153.184 149.694 161.122 149.778 161.456C149.917 162.015 150.439 162.388 151.024 162.32C165.781 160.649 194.996 157.712 199.939 158.57C201.162 158.782 202.003 159.305 202.512 160.171C203.63 162.07 202.925 165.292 202.528 166.473Z" fill="#17120F"/>
<path d="M186.407 154.249C185.772 154.249 185.256 153.734 185.256 153.098V104.553C185.256 103.917 185.772 103.402 186.407 103.402C187.042 103.402 187.558 103.917 187.558 104.553V153.098C187.558 153.734 187.042 154.249 186.407 154.249Z" fill="#17120F"/>
<path d="M207.452 102.088H165.363C164.99 102.088 164.64 101.907 164.424 101.603C164.208 101.299 164.154 100.909 164.276 100.557L177.758 62.0839C177.92 61.6229 178.355 61.3139 178.844 61.3139H193.97C194.459 61.3139 194.895 61.6229 195.056 62.0839L208.538 100.557C208.661 100.909 208.606 101.299 208.39 101.603C208.174 101.907 207.825 102.088 207.452 102.088Z" fill="black"/>
<path d="M191.622 112.035C190.987 112.035 190.471 111.52 190.471 110.884V104.554C190.471 103.918 190.987 103.403 191.622 103.403C192.257 103.403 192.773 103.918 192.773 104.554V110.884C192.773 111.52 192.258 112.035 191.622 112.035Z" fill="#17120F"/>
<path d="M177.027 110.437C173.784 110.437 171.144 107.798 171.144 104.554C171.144 103.918 171.66 103.403 172.295 103.403C172.93 103.403 173.446 103.918 173.446 104.554C173.446 106.528 175.053 108.135 177.027 108.135C179.001 108.135 180.608 106.529 180.608 104.554C180.608 103.918 181.124 103.403 181.759 103.403C182.394 103.403 182.91 103.918 182.91 104.554C182.909 107.798 180.27 110.437 177.027 110.437Z" fill="#17120F"/>
</svg>
